{
  "source": "C:\\Users\\Peter\\Desktop\\stuff\\MIUN\\quantitative_research\\video_compression\\videos\\BVI-HD\\BVI-HD_CDVL_videos\\ORIG\\PlasmaAveragePan_1920x1080_60fps.mp4",
  "output": "C:\\Users\\Peter\\Desktop\\stuff\\MIUN\\quantitative_research\\video_compression\\compressed_videos\\BVI-HD\\vp9\\4\\PlasmaAveragePan_1920x1080_60fps_vp9.webm",
  "codec": "vp9",
  "ok": "Input #0, mov,mp4,m4a,3gp,3g2,mj2, from 'C:\\Users\\Peter\\Desktop\\stuff\\MIUN\\quantitative_research\\video_compression\\videos\\BVI-HD\\BVI-HD_CDVL_videos\\ORIG\\PlasmaAveragePan_1920x1080_60fps.mp4':\n  Metadata:\n    major_brand     : isom\n    minor_version   : 512\n    compatible_brands: isomiso2avc1mp41\n    encoder         : Lavf54.28.101\n  Duration: 00:00:05.00, start: 0.000000, bitrate: 73730 kb/s\n  Stream #0:0[0x1](und): Video: h264 (High 4:4:4 Predictive) (avc1 / 0x31637661), yuv420p(progressive), 1920x1080, 73727 kb/s, 60 fps, 60 tbr, 60 tbn (default)\n    Metadata:\n      handler_name    : VideoHandler\n      vendor_id       : [0][0][0][0]\n[out#0/webm @ 000001d0875a0840] Codec AVOption b:a (set bitrate (in bits/s)) has not been used for any stream. The most likely reason is either wrong type (e.g. a video option with no video streams) or that it is a private option of some decoder which was not actually used for any stream.\nStream mapping:\n  Stream #0:0 -> #0:0 (h264 (native) -> vp9 (libvpx-vp9))\nPress [q] to stop, [?] for help\n[libvpx-vp9 @ 000001d087db2240] v1.15.2-100-g40561f514\nOutput #0, webm, to 'C:\\Users\\Peter\\Desktop\\stuff\\MIUN\\quantitative_research\\video_compression\\compressed_videos\\BVI-HD\\vp9\\4\\PlasmaAveragePan_1920x1080_60fps_vp9.webm':\n  Metadata:\n    major_brand     : isom\n    minor_version   : 512\n    compatible_brands: isomiso2avc1mp41\n    encoder         : Lavf62.3.100\n  Stream #0:0(und): Video: vp9, yuv420p(tv, progressive), 1920x1080, q=2-31, 4000 kb/s, 60 fps, 1k tbn (default)\n    Metadata:\n      encoder         : Lavc62.11.100 libvpx-vp9\n      handler_name    : VideoHandler\n      vendor_id       : [0][0][0][0]\n    Side data:\n      cpb: bitrate max/min/avg: 0/0/0 buffer size: 4000000 vbv_delay: N/A\nframe=    3 fps=0.0 q=54.0 size=       1KiB time=00:00:00.05 bitrate= 101.3kbits/s speed=0.097x elapsed=0:00:00.51    \nframe=   10 fps=9.7 q=43.0 size=       1KiB time=00:00:00.16 bitrate=  30.4kbits/s speed=0.162x elapsed=0:00:01.02    \nframe=   17 fps= 11 q=40.0 size=       1KiB time=00:00:00.28 bitrate=  17.9kbits/s speed=0.183x elapsed=0:00:01.54    \nframe=   22 fps= 11 q=41.0 size=       1KiB time=00:00:00.36 bitrate=  13.8kbits/s speed=0.177x elapsed=0:00:02.07    \nframe=   28 fps= 11 q=40.0 size=       1KiB time=00:00:00.46 bitrate=  10.9kbits/s speed=0.179x elapsed=0:00:02.60    \nframe=   34 fps= 11 q=41.0 size=       1KiB time=00:00:00.56 bitrate=   8.9kbits/s speed=0.181x elapsed=0:00:03.13    \nframe=   40 fps= 11 q=42.0 size=       1KiB time=00:00:00.66 bitrate=   7.6kbits/s speed=0.183x elapsed=0:00:03.63    \nframe=   46 fps= 11 q=42.0 size=       1KiB time=00:00:00.76 bitrate=   6.6kbits/s speed=0.184x elapsed=0:00:04.16    \nframe=   51 fps= 11 q=42.0 size=       1KiB time=00:00:00.85 bitrate=   6.0kbits/s speed=0.18x elapsed=0:00:04.71    \nframe=   58 fps= 11 q=42.0 size=       1KiB time=00:00:00.96 bitrate=   5.2kbits/s speed=0.184x elapsed=0:00:05.24    \nframe=   64 fps= 11 q=42.0 size=       1KiB time=00:00:01.06 bitrate=   4.7kbits/s speed=0.185x elapsed=0:00:05.76    \nframe=   71 fps= 11 q=43.0 size=       1KiB time=00:00:01.18 bitrate=   4.3kbits/s speed=0.188x elapsed=0:00:06.30    \nframe=   77 fps= 11 q=44.0 size=       1KiB time=00:00:01.28 bitrate=   3.9kbits/s speed=0.187x elapsed=0:00:06.86    \nframe=   83 fps= 11 q=45.0 size=       1KiB time=00:00:01.38 bitrate=   3.7kbits/s speed=0.187x elapsed=0:00:07.40    \nframe=   89 fps= 11 q=43.0 size=       1KiB time=00:00:01.48 bitrate=   3.4kbits/s speed=0.187x elapsed=0:00:07.92    \nframe=   95 fps= 11 q=42.0 size=       1KiB time=00:00:01.58 bitrate=   3.2kbits/s speed=0.187x elapsed=0:00:08.45    \nframe=  102 fps= 11 q=41.0 size=       1KiB time=00:00:01.70 bitrate=   3.0kbits/s speed=0.19x elapsed=0:00:08.96    \nframe=  108 fps= 11 q=42.0 size=       1KiB time=00:00:01.80 bitrate=   2.8kbits/s speed=0.19x elapsed=0:00:09.48    \nframe=  113 fps= 11 q=43.0 size=       1KiB time=00:00:01.88 bitrate=   2.7kbits/s speed=0.188x elapsed=0:00:10.03    \nframe=  119 fps= 11 q=23.0 size=       1KiB time=00:00:01.98 bitrate=   2.6kbits/s speed=0.188x elapsed=0:00:10.57    \nframe=  126 fps= 11 q=44.0 size=       1KiB time=00:00:02.10 bitrate=   2.4kbits/s speed=0.189x elapsed=0:00:11.10    \nframe=  132 fps= 11 q=44.0 size=     512KiB time=00:00:02.20 bitrate=1906.5kbits/s speed=0.189x elapsed=0:00:11.63    \nframe=  139 fps= 11 q=44.0 size=     512KiB time=00:00:02.31 bitrate=1810.5kbits/s speed=0.19x elapsed=0:00:12.17    \nframe=  144 fps= 11 q=43.0 size=     512KiB time=00:00:02.40 bitrate=1747.6kbits/s speed=0.188x elapsed=0:00:12.73    \nframe=  150 fps= 11 q=43.0 size=     512KiB time=00:00:02.50 bitrate=1677.7kbits/s speed=0.188x elapsed=0:00:13.27    \nframe=  156 fps= 11 q=44.0 size=     512KiB time=00:00:02.60 bitrate=1613.2kbits/s speed=0.189x elapsed=0:00:13.78    \nframe=  163 fps= 11 q=45.0 size=     512KiB time=00:00:02.70 bitrate=1553.4kbits/s speed=0.189x elapsed=0:00:14.32    \nframe=  168 fps= 11 q=45.0 size=     512KiB time=00:00:02.80 bitrate=1498.0kbits/s speed=0.189x elapsed=0:00:14.84    \nframe=  174 fps= 11 q=44.0 size=     512KiB time=00:00:02.90 bitrate=1446.3kbits/s speed=0.189x elapsed=0:00:15.37    \nframe=  181 fps= 11 q=43.0 size=     512KiB time=00:00:03.00 bitrate=1398.1kbits/s speed=0.189x elapsed=0:00:15.89    \nframe=  187 fps= 11 q=42.0 size=     512KiB time=00:00:03.11 bitrate=1345.8kbits/s speed=0.189x elapsed=0:00:16.45    \nframe=  194 fps= 11 q=42.0 size=     512KiB time=00:00:03.23 bitrate=1297.2kbits/s speed=0.191x elapsed=0:00:16.96    \nframe=  200 fps= 11 q=22.0 size=     512KiB time=00:00:03.31 bitrate=1264.6kbits/s speed=0.19x elapsed=0:00:17.49    \nframe=  205 fps= 11 q=43.0 size=     512KiB time=00:00:03.41 bitrate=1227.6kbits/s speed=0.189x elapsed=0:00:18.03    \nframe=  210 fps= 11 q=43.0 size=     512KiB time=00:00:03.50 bitrate=1198.4kbits/s speed=0.189x elapsed=0:00:18.54    \nframe=  216 fps= 11 q=42.0 size=     512KiB time=00:00:03.60 bitrate=1165.1kbits/s speed=0.189x elapsed=0:00:19.05    \nframe=  223 fps= 11 q=42.0 size=     512KiB time=00:00:03.71 bitrate=1128.5kbits/s speed=0.19x elapsed=0:00:19.57    \nframe=  229 fps= 11 q=42.0 size=     512KiB time=00:00:03.81 bitrate=1098.9kbits/s speed=0.19x elapsed=0:00:20.11    \nframe=  236 fps= 11 q=22.0 size=     512KiB time=00:00:03.91 bitrate=1070.9kbits/s speed=0.19x elapsed=0:00:20.62    \nframe=  242 fps= 11 q=44.0 size=     512KiB time=00:00:04.03 bitrate=1039.9kbits/s speed=0.191x elapsed=0:00:21.15    \nframe=  247 fps= 11 q=45.0 size=     512KiB time=00:00:04.11 bitrate=1018.9kbits/s speed=0.19x elapsed=0:00:21.69    \nframe=  254 fps= 11 q=45.0 size=     512KiB time=00:00:04.23 bitrate= 990.8kbits/s speed=0.191x elapsed=0:00:22.20    \nframe=  260 fps= 11 q=43.0 size=    1280KiB time=00:00:04.33 bitrate=2419.8kbits/s speed=0.191x elapsed=0:00:22.73    \nframe=  267 fps= 11 q=42.0 size=    1280KiB time=00:00:04.45 bitrate=2356.4kbits/s speed=0.191x elapsed=0:00:23.25    \nframe=  273 fps= 11 q=42.0 size=    1280KiB time=00:00:04.55 bitrate=2304.6kbits/s speed=0.191x elapsed=0:00:23.78    \nframe=  276 fps= 11 q=41.0 size=    1280KiB time=00:00:04.60 bitrate=2279.5kbits/s speed=0.189x elapsed=0:00:24.30    \nframe=  276 fps= 11 q=41.0 size=    1280KiB time=00:00:04.60 bitrate=2279.5kbits/s speed=0.185x elapsed=0:00:24.80    \nframe=  276 fps= 11 q=41.0 size=    1280KiB time=00:00:04.60 bitrate=2279.5kbits/s speed=0.182x elapsed=0:00:25.33    \nframe=  276 fps= 11 q=41.0 size=    1280KiB time=00:00:04.60 bitrate=2279.5kbits/s speed=0.178x elapsed=0:00:25.86    \n[out#0/webm @ 000001d0875a0840] video:1599KiB audio:0KiB subtitle:0KiB other streams:0KiB global headers:0KiB muxing overhead: 0.173703%\nframe=  300 fps= 12 q=43.0 Lsize=    1602KiB time=00:00:05.00 bitrate=2624.2kbits/s speed=0.192x elapsed=0:00:26.07    \n",
  "seconds": 26.291748523712158,
  "probe_out": {}
}